<svg xmlns="http://www.w3.org/2000/svg" width="24" height="24" viewBox="0 0 24 24" fill="none" stroke="currentColor" stroke-width="2" stroke-linecap="round" stroke-linejoin="round" class="devfont devfont-moon"><path d="M9.658 3.101l.38-.101a7.591 7.591 0 0 0-1.06 5.041 7.686 7.686 0 0 0 2.393 4.587 7.573 7.573 0 0 0 4.739 2.008 7.438 7.438 0 0 0 4.89-1.5 9.051 9.051 0 0 1-1.865 4.459 8.927 8.927 0 0 1-8.681 3.25 9.104 9.104 0 0 1-4.348-2.134 9.22 9.22 0 0 1-2.66-4.071 9.178 9.178 0 0 1-.219-4.851 9.023 9.023 0 0 1 2.287-4.252 8.919 8.919 0 0 1 4.142-2.444l.002.008z"></path></svg>