<?xml version="1.0" encoding="UTF-8" standalone="no"?>
<svg
   xmlns:dc="http://purl.org/dc/elements/1.1/"
   xmlns:cc="http://creativecommons.org/ns#"
   xmlns:rdf="http://www.w3.org/1999/02/22-rdf-syntax-ns#"
   xmlns:svg="http://www.w3.org/2000/svg"
   xmlns="http://www.w3.org/2000/svg"
   xmlns:sodipodi="http://sodipodi.sourceforge.net/DTD/sodipodi-0.dtd"
   xmlns:inkscape="http://www.inkscape.org/namespaces/inkscape"
   width="24"
   height="24"
   fill="currentColor"
   class="bi bi-brightness-high-fill"
   viewBox="0 0 24 24"
   version="1.1"
   id="svg4"
   sodipodi:docname="sun.svg"
   inkscape:version="1.0.1 (3bc2e813f5, 2020-09-07)">
  <metadata
     id="metadata10">
    <rdf:RDF>
      <cc:Work
         rdf:about="">
        <dc:format>image/svg+xml</dc:format>
        <dc:type
           rdf:resource="http://purl.org/dc/dcmitype/StillImage" />
        <dc:title></dc:title>
      </cc:Work>
    </rdf:RDF>
  </metadata>
  <defs
     id="defs8" />
  <sodipodi:namedview
     pagecolor="#000000"
     bordercolor="#666666"
     borderopacity="1"
     objecttolerance="10"
     gridtolerance="10"
     guidetolerance="10"
     inkscape:pageopacity="0"
     inkscape:pageshadow="2"
     inkscape:window-width="1456"
     inkscape:window-height="795"
     id="namedview6"
     showgrid="false"
     inkscape:pagecheckerboard="true"
     inkscape:zoom="128"
     inkscape:cx="21.43283"
     inkscape:cy="2.2987681"
     inkscape:window-x="0"
     inkscape:window-y="28"
     inkscape:window-maximized="0"
     inkscape:current-layer="svg4"
     inkscape:document-rotation="0" />
  <path
     d="m 18,12.000252 a 6.0000003,6.0001265 0 1 1 -12.0000006,0 6.0000003,6.0001265 0 0 1 12.0000006,0 z M 11.999999,0 A 0.75,0.75001576 0 0 1 12.75,0.75001576 V 3.7500787 a 0.75000017,0.75001593 0 0 1 -1.5,0 V 0.75001576 A 0.75,0.75001576 0 0 1 11.999999,0 Z m 0,19.500409 A 0.75,0.75001576 0 0 1 12.75,20.250426 v 3.000063 a 0.75000017,0.75001593 0 0 1 -1.5,0 v -3.000063 a 0.75,0.75001576 0 0 1 0.749999,-0.750017 z m 12,-7.500157 A 0.75,0.75001576 0 0 1 23.25,12.750269 h -3.000001 a 0.75000032,0.75001608 0 0 1 0,-1.500032 H 23.25 a 0.75,0.75001576 0 0 1 0.749999,0.750015 z m -19.4999996,0 a 0.75,0.75001576 0 0 1 -0.75,0.750017 h -3 a 0.75000032,0.75001608 0 0 1 0,-1.500032 h 3 a 0.75,0.75001576 0 0 1 0.75,0.750015 z M 20.485499,3.5145739 a 0.75,0.75001576 0 0 1 0,1.0605224 l -2.121001,2.1225446 a 0.75041737,0.75043315 0 1 1 -1.0605,-1.0620224 l 2.121001,-2.1210446 a 0.75,0.75001576 0 0 1 1.0605,0 z M 6.6959994,17.304363 a 0.75,0.75001576 0 0 1 0,1.060523 L 4.5749995,20.485931 A 0.75,0.75001576 0 0 1 3.5144994,19.425408 l 2.1210001,-2.121045 a 0.75,0.75001576 0 0 1 1.0604999,0 z m 13.7894996,3.181568 a 0.75,0.75001576 0 0 1 -1.0605,0 l -2.121001,-2.121045 a 0.75,0.75001576 0 0 1 1.0605,-1.060523 l 2.121001,2.121045 a 0.75,0.75001576 0 0 1 0,1.060523 z M 6.6959994,6.6976409 a 0.75,0.75001576 0 0 1 -1.0604999,0 L 3.5144994,4.5750963 A 0.75,0.75001576 0 1 1 4.5749995,3.5145739 l 2.1209999,2.1210446 a 0.75,0.75001576 0 0 1 0,1.0620224 z"
     id="path2"
     style="fill:#ffffff;fill-opacity:1;stroke:none;stroke-width:1.50002;stroke-opacity:1" />
</svg>
