<?xml version="1.0" encoding="UTF-8" standalone="no"?>
<svg
   xmlns:dc="http://purl.org/dc/elements/1.1/"
   xmlns:cc="http://creativecommons.org/ns#"
   xmlns:rdf="http://www.w3.org/1999/02/22-rdf-syntax-ns#"
   xmlns:svg="http://www.w3.org/2000/svg"
   xmlns="http://www.w3.org/2000/svg"
   xmlns:sodipodi="http://sodipodi.sourceforge.net/DTD/sodipodi-0.dtd"
   xmlns:inkscape="http://www.inkscape.org/namespaces/inkscape"
   width="24"
   height="24"
   fill="currentColor"
   class="bi bi-github"
   viewBox="0 0 24 24"
   version="1.1"
   id="svg4"
   sodipodi:docname="github-black.svg"
   inkscape:version="1.0.1 (3bc2e813f5, 2020-09-07)">
  <metadata
     id="metadata10">
    <rdf:RDF>
      <cc:Work
         rdf:about="">
        <dc:format>image/svg+xml</dc:format>
        <dc:type
           rdf:resource="http://purl.org/dc/dcmitype/StillImage" />
        <dc:title></dc:title>
      </cc:Work>
    </rdf:RDF>
  </metadata>
  <defs
     id="defs8" />
  <sodipodi:namedview
     pagecolor="#000000"
     bordercolor="#666666"
     borderopacity="1"
     objecttolerance="10"
     gridtolerance="10"
     guidetolerance="10"
     inkscape:pageopacity="0"
     inkscape:pageshadow="2"
     inkscape:window-width="1500"
     inkscape:window-height="891"
     id="namedview6"
     showgrid="false"
     inkscape:pagecheckerboard="true"
     inkscape:zoom="26.21875"
     inkscape:cx="13.940987"
     inkscape:cy="11.024911"
     inkscape:window-x="0"
     inkscape:window-y="28"
     inkscape:window-maximized="0"
     inkscape:current-layer="svg4"
     inkscape:document-rotation="0" />
  <path
     d="M 12,0 C 5.37,0 0,5.505828 0,12.303527 0,17.747837 3.435,22.34628 8.205,23.976496 8.805,24.084152 9.03,23.715046 9.03,23.392079 9.03,23.099871 9.015,22.130968 9.015,21.100547 6,21.669585 5.22,20.346956 4.98,19.654883 4.845,19.301157 4.26,18.209218 3.75,17.91701 3.33,17.686318 2.73,17.117281 3.735,17.101902 c 0.945,-0.01538 1.62,0.892005 1.845,1.261111 1.08,1.860908 2.805,1.338008 3.495,1.015041 C 9.18,18.578324 9.495,18.040045 9.84,17.732457 7.17,17.424869 4.38,16.36369 4.38,11.657591 4.38,10.319582 4.845,9.2122652 5.61,8.3510184 5.49,8.0434302 5.07,6.7823188 5.73,5.090584 c 0,0 1.005,-0.3229676 3.3,1.2611114 0.96,-0.2768294 1.98,-0.415244 3,-0.415244 1.02,0 2.04,0.1384146 3,0.415244 2.295,-1.5994584 3.3,-1.2611114 3.3,-1.2611114 0.66,1.6917348 0.24,2.9528462 0.12,3.2604344 0.765,0.8612468 1.23,1.9531846 1.23,3.3065726 0,4.721478 -2.805,5.767278 -5.475,6.074866 0.435,0.384486 0.81,1.122697 0.81,2.276152 0,1.645597 -0.015,2.968227 -0.015,3.38347 0,0.322967 0.225,0.707453 0.825,0.584417 A 12.018,12.321981 0 0 0 24,12.303527 C 24,5.505828 18.63,0 12,0 Z"
     id="path2"
     style="fill:#000000;fill-opacity:1;stroke-width:1.51885" />
</svg>
